<svg version="1.1" xmlns="http://www.w3.org/2000/svg" viewBox="-1043.1239046548158 -2591.5023433390857 4768.434707141243 3884.082971178622"><desc>Created with Snap</desc><defs></defs><g><g transform="matrix(10.5768,0,0,10.5768,-812.6144,-2654.2097)">
<g id="gSkv0ig02u7cb">
	<path d="M196.02133,47.02528C162.0565,63.37874,34.04472,181.23653,17.95026,220.8622
		C-23.53873,323.01114,64.3831,338.37173,131.90678,342.95166c83.79094,5.68329,233.84074-6.40137,262.61847-108.008
		C427.85785,117.2548,302.42114-4.2047,196.02133,47.02528z" fill="#e94b3c" style=""></path>
</g>


<desc>Created with Snap</desc><defs></defs></g><g><g transform="matrix(0.5,0,0,-0.5,0,0)"><path d="M634 570L340 570L340 0L157 0L157 1456L621 1456Q824 1456 940 1334Q1056 1213 1056 1011Q1056 801 945 687Q835 574 634 570ZM340 1298L340 727L621 727Q743 727 808 800Q873 873 873 1009Q873 1140 806 1219Q739 1298 622 1298L340 1298ZM1444 1536L1444 971Q1545 1102 1702 1102Q1989 1102 1993 719L1993 0L1817 0L1817 711Q1817 838 1774 891Q1732 945 1647 945Q1581 945 1528 901Q1476 857 1444 786L1444 0L1267 0L1267 1536L1444 1536ZM2997 0L2813 0Q2797 35 2790 118Q2696 -20 2550 -20Q2403 -20 2320 62Q2238 145 2238 295Q2238 460 2350 557Q2462 654 2657 656L2787 656L2787 771Q2787 868 2744 909Q2701 950 2613 950Q2533 950 2483 902Q2433 855 2433 782L2256 782Q2256 865 2305 940Q2354 1016 2437 1059Q2520 1102 2622 1102Q2788 1102 2874 1019Q2961 937 2963 779L2963 233Q2964 108 2997 16L2997 0ZM2577 141Q2642 141 2701 177Q2760 213 2787 267L2787 525L2687 525Q2561 523 2488 468Q2415 414 2415 316Q2415 224 2452 182Q2489 141 2577 141ZM3237 1082L3404 1082L3409 965Q3512 1102 3672 1102Q3959 1102 3963 719L3963 0L3787 0L3787 711Q3787 838 3744 891Q3702 945 3617 945Q3551 945 3498 901Q3446 857 3414 786L3414 0L3237 0L3237 1082ZM4615 -20Q4413 -20 4305 100Q4197 221 4195 454L4195 585Q4195 827 4300 964Q4406 1102 4595 1102Q4785 1102 4879 981Q4973 860 4975 604L4975 488L4371 488L4371 463Q4371 289 4436 210Q4502 131 4625 131Q4703 131 4762 160Q4822 190 4874 254L4966 142Q4851 -20 4615 -20ZM4595 950Q4485 950 4432 874Q4379 799 4372 640L4798 640L4798 664Q4791 818 4742 884Q4694 950 4595 950ZM5574 -20Q5372 -20 5264 100Q5156 221 5154 454L5154 585Q5154 827 5259 964Q5365 1102 5554 1102Q5744 1102 5838 981Q5932 860 5934 604L5934 488L5330 488L5330 463Q5330 289 5395 210Q5461 131 5584 131Q5662 131 5721 160Q5781 190 5833 254L5925 142Q5810 -20 5574 -20ZM5554 950Q5444 950 5391 874Q5338 799 5331 640L5757 640L5757 664Q5750 818 5701 884Q5653 950 5554 950Z" fill="#2d2926" style=""></path></g></g></g></svg>