<svg version="1.1" xmlns="http://www.w3.org/2000/svg" viewBox="-864.4024250661789 -3026.5642806189676 5143.333119196793 5143.800361494656"><desc>Created with Snap</desc><defs></defs><g><g transform="matrix(11.7143,0,0,11.7143,-635.5969,-2797.5251)">
<g id="gSkv0ig02uai0">
	<g>
		<path fill="#d64161" d="M82.06866,46.80432c0.44048,0.09728,1.81986-0.49205,3.98136-1.64856
			c2.20975-1.09238,5.2579-2.67703,8.94401-4.68989c7.51703-3.80428,17.93356-8.86331,30.43024-13.1756
			c12.47414-4.32378,26.96772-7.99401,42.01273-9.6109c1.87662-0.19844,3.75923-0.39779,5.64507-0.59735
			c1.88943-0.14902,3.78758-0.23685,5.67796-0.35662c3.77602-0.30159,7.57491-0.23849,11.32912-0.3126
			c1.87773-0.03781,3.75569,0.09517,5.61867,0.13513c1.86383,0.08778,3.71739,0.06724,5.55797,0.24432
			c3.67995,0.31842,7.31462,0.49835,10.86098,1.02225c-24.46938,0.31527-45.84834,5.87472-62.983,13.23676
			c-8.58604,3.71305-16.09875,8.00225-22.67894,12.26207c-3.22648,2.26534-6.32965,4.31355-9.06628,6.60401
			c-1.37437,1.11085-2.71513,2.19456-4.02266,3.25142c-1.23869,1.13261-2.44566,2.23617-3.62017,3.31003
			c-9.26917,8.664-14.87678,16.66336-17.84011,22.57063c-2.84336,6.059-3.17654,9.94636-1.23619,11.60844
			c12.396-15.45393,28.45402-29.09509,47.43205-39.08565c18.9328-10.01645,40.72635-16.36285,63.47681-17.78591
			c22.73022-1.48197,46.37234,1.87225,68.61374,10.25464c11.11929,4.17942,21.8819,9.59661,32.00284,16.15094
			c10.12143,6.55412,19.58212,14.25672,28.18671,22.87717c17.22528,17.23357,30.80743,38.36257,39.42282,61.36801
			c8.65921,22.994,12.38708,47.78455,11.09464,72.0957c-1.24237,24.32739-7.58545,48.12822-18.00375,69.4503
			c-10.38284,21.37689-24.93945,40.10056-41.69687,55.30795c-8.38907,7.61682-17.36337,14.36597-26.70444,20.18491
			c-9.34406,5.82074-19.09393,10.61557-28.94733,14.54181c-9.86093,3.9166-19.85266,6.91727-29.78415,9.08392
			c-9.94624,2.10358-19.82362,3.32999-29.4743,3.85846c-9.65497,0.57462-19.08638,0.22992-28.16501-0.64651
			c-1.13516-0.11664-2.26575-0.23282-3.39136-0.34888c-1.12697-0.11121-2.24884-0.22696-3.3564-0.41266
			c-2.22144-0.33698-4.42419-0.67114-6.60777-1.00272c-2.18347-0.34042-4.3194-0.83633-6.45241-1.24716
			c-1.0649-0.21622-2.12482-0.43161-3.18013-0.64587c-1.05194-0.22882-2.08591-0.51355-3.12253-0.76712
			c-2.06961-0.52557-4.12024-1.04596-6.15103-1.56174c-2.00519-0.61169-3.99089-1.21768-5.95718-1.81741
			c-0.98251-0.30374-1.9601-0.60596-2.93306-0.90634c-0.95847-0.3439-1.91188-0.68619-2.86023-1.02689
			c-1.89658-0.68607-3.77393-1.36462-5.63077-2.03653c-7.32208-2.95859-14.25258-6.03729-20.57684-9.50757
			c-12.72123-6.81235-23.36193-14.39328-32.06516-21.69196c-2.17656-1.82785-4.29309-3.57358-6.18667-5.40707
			c-1.91791-1.80673-3.80501-3.49908-5.5228-5.21066c-3.36911-3.48929-6.50893-6.61322-9.06343-9.67181
			c-1.30597-1.50275-2.53819-2.92072-3.69509-4.25165c-1.09204-1.3862-2.11286-2.68185-3.06096-3.88477
			c-0.945-1.20602-1.81723-2.31924-2.61518-3.33749c-0.77715-1.03403-1.43549-2.00656-2.04808-2.85944
			c-2.41859-3.43576-3.70066-5.25714-3.74636-5.32217c-5.46113-8.26123-10.29185-16.883-14.46608-25.78323
			c-4.16677-8.90799-7.4951-18.15073-10.23626-27.52586c-2.76757-9.37598-4.63573-18.97604-5.88218-28.62491
			c-0.68911-4.82196-0.98716-9.67961-1.33614-14.5295l-0.20802-7.29013c-0.05188-1.21474-0.04251-2.42969-0.00855-3.6449
			l0.07005-3.64503c0.42722-19.44357,3.96095-38.7907,10.20834-57.30516c3.20473-9.23248,7.07828-18.25121,11.59234-26.98227
			c4.59464-8.69124,9.87891-17.03811,15.72216-25.0221c0.69774-0.90845,2.08265-2.71173,3.77679-4.91772
			c0.42325-0.55247,0.86528-1.12967,1.32112-1.72482c0.48035-0.5741,0.97521-1.16545,1.47757-1.76587
			c1.00593-1.20171,2.04324-2.44109,3.06269-3.65897c1.98835-2.48425,4.12689-4.67604,5.64749-6.44722
			c1.54144-1.75171,2.56507-2.98889,2.63037-3.26817l-0.00708,0.00397c-17.48207,17.50659-31.66323,38.43564-41.30956,61.28998
			c-9.67891,22.84109-14.85973,47.53831-15.24643,72.3043c-0.40845,24.76634,3.97346,49.61223,12.90819,72.75127
			c8.90224,23.14932,22.40002,44.53232,39.34857,62.56775c16.89465,18.05338,37.32344,32.93442,59.85665,43.33493
			c22.51597,10.43509,47.04972,16.40039,71.79456,17.58765c24.74609,1.20511,49.72084-2.37305,73.14037-10.55167
			c23.42676-8.14722,45.24942-20.94238,63.81384-37.33554c18.55795-16.34717,34.06335-36.25995,45.19333-58.44409
			c11.15619-22.16071,17.92752-46.4855,19.90485-71.17728c1.99942-24.6918-0.77719-49.75745-8.18207-73.42302
			c-7.37558-23.67151-19.42508-45.90224-35.18915-65.02438c-15.71448-19.13124-35.16812-35.17571-56.96564-47.04198
			c-21.789-11.86739-45.88651-19.42662-70.50345-22.19782c-24.61627-2.79403-49.7552-0.82467-73.64371,5.80912
			c-23.89274,6.60539-46.50471,17.92143-66.11643,33.08085L82.06866,46.80432z" style=""></path>
	</g>
</g>


<desc>Created with Snap</desc><defs></defs></g><g><g transform="matrix(0.512,0,0,-0.512,0,0)"><path d="M617 536L387 536L387 0L194 0L194 1433L617 1433Q753 1433 853 1401Q954 1370 1020 1312Q1086 1254 1118 1172Q1151 1090 1151 989Q1151 889 1116 806Q1081 723 1013 663Q946 603 846 569Q746 536 617 536ZM387 1280L387 690L617 690Q700 690 763 712Q827 734 870 773Q913 813 935 868Q957 923 957 989Q957 1126 872 1203Q788 1280 617 1280L387 1280ZM1546 0L1368 0L1368 1473L1546 1473L1546 877Q1611 946 1690 987Q1769 1029 1872 1029Q1955 1029 2018 1001Q2082 974 2124 923Q2167 873 2189 802Q2211 731 2211 645L2211 0L2033 0L2033 645Q2033 760 1980 823Q1928 887 1820 887Q1741 887 1672 849Q1604 811 1546 746L1546 0ZM3224 648L3224 0L3145 0Q3119 0 3103 8Q3087 16 3082 42L3062 136Q3022 100 2984 71Q2946 43 2904 23Q2862 4 2814 -6Q2767 -16 2709 -16Q2650 -16 2598 0Q2547 17 2509 50Q2471 83 2448 133Q2426 184 2426 253Q2426 313 2459 368Q2492 424 2565 467Q2639 510 2758 537Q2877 565 3049 569L3049 648Q3049 766 2998 826Q2948 887 2849 887Q2784 887 2739 870Q2695 854 2662 833Q2630 813 2606 796Q2583 780 2560 780Q2542 780 2528 789Q2515 799 2507 813L2475 870Q2559 951 2656 991Q2753 1031 2871 1031Q2956 1031 3022 1003Q3088 975 3133 925Q3178 875 3201 804Q3224 733 3224 648ZM2762 109Q2809 109 2848 118Q2887 128 2921 145Q2956 163 2987 188Q3019 213 3049 245L3049 456Q2926 452 2840 436Q2754 421 2700 396Q2646 371 2621 337Q2597 303 2597 261Q2597 221 2610 192Q2623 163 2645 144Q2667 126 2697 117Q2727 109 2762 109ZM3672 0L3494 0L3494 1013L3600 1013Q3638 1013 3648 976L3662 866Q3728 939 3809 984Q3891 1029 3998 1029Q4081 1029 4144 1001Q4208 974 4250 923Q4293 873 4315 802Q4337 731 4337 645L4337 0L4159 0L4159 645Q4159 760 4106 823Q4054 887 3946 887Q3867 887 3798 849Q3730 811 3672 746L3672 0ZM5007 1029Q5098 1029 5175 998Q5252 968 5308 910Q5364 853 5395 768Q5427 684 5427 576Q5427 534 5418 520Q5409 506 5384 506L4710 506Q4712 410 4736 339Q4760 268 4802 220Q4844 173 4902 149Q4960 126 5032 126Q5099 126 5147 141Q5196 157 5231 175Q5266 193 5289 208Q5313 224 5330 224Q5352 224 5364 207L5414 142Q5381 102 5335 72Q5289 43 5236 24Q5184 5 5128 -5Q5072 -14 5017 -14Q4912 -14 4823 21Q4735 57 4670 125Q4606 194 4570 295Q4534 396 4534 527Q4534 633 4566 725Q4599 817 4660 884Q4721 952 4809 990Q4897 1029 5007 1029ZM5011 898Q4882 898 4808 823Q4734 749 4716 617L5267 617Q5267 679 5250 730Q5233 782 5200 819Q5167 857 5119 877Q5072 898 5011 898ZM6055 1029Q6146 1029 6223 998Q6300 968 6356 910Q6412 853 6443 768Q6475 684 6475 576Q6475 534 6466 520Q6457 506 6432 506L5758 506Q5760 410 5784 339Q5808 268 5850 220Q5892 173 5950 149Q6008 126 6080 126Q6147 126 6195 141Q6244 157 6279 175Q6314 193 6337 208Q6361 224 6378 224Q6400 224 6412 207L6462 142Q6429 102 6383 72Q6337 43 6284 24Q6232 5 6176 -5Q6120 -14 6065 -14Q5960 -14 5871 21Q5783 57 5718 125Q5654 194 5618 295Q5582 396 5582 527Q5582 633 5614 725Q5647 817 5708 884Q5769 952 5857 990Q5945 1029 6055 1029ZM6059 898Q5930 898 5856 823Q5782 749 5764 617L6315 617Q6315 679 6298 730Q6281 782 6248 819Q6215 857 6167 877Q6120 898 6059 898Z" fill="#435e55" style=""></path></g></g></g></svg>