<svg version="1.1" xmlns="http://www.w3.org/2000/svg" viewBox="-286.719998550415 -3605.504141235351 9506.816015625 4129.7921539306635"><desc>Created with Snap</desc><defs><linearGradient x1="-286.719998550415" y1="-3605.504141235351" x2="9220.096017074584" y2="-3605.504141235351" gradientUnits="userSpaceOnUse" id="linearGradientSkv0lz0qk57z"><stop offset="0%" stop-color="#081c4f"></stop><stop offset="100%" stop-color="#157c79"></stop></linearGradient></defs><g><rect x="-286.719998550415" y="-3605.504141235351" width="9506.816015625" height="4129.7921539306635" fill="url('#linearGradientSkv0lz0qk57z')"></rect><g transform="matrix(29.2405,0,0,29.2405,3004.2961,-3650.4145)"><path d="M89.8,36.1c0.6,0,1.1-0.5,1.1-1.1l0-1.7c0-0.6-0.5-1.1-1.1-1.1l-1.7,0c-0.3-1.4-0.8-2.7-1.6-3.9l1.2-1.2  c0.4-0.4,0.4-1.1,0-1.6l-1.2-1.2c-0.4-0.4-1.1-0.4-1.6,0l-1.2,1.2c-1.2-0.8-2.5-1.4-3.9-1.6l0-1.7c0-0.6-0.5-1.1-1.1-1.1l-1.7,0  c-0.6,0-1.1,0.5-1.1,1.1l0,1.7c-1.4,0.3-2.7,0.8-3.9,1.6l-1.2-1.2c-0.4-0.4-1.1-0.4-1.6,0l-1.2,1.2c-0.4,0.4-0.4,1.1,0,1.6l1.2,1.2  c-0.8,1.2-1.4,2.6-1.6,3.9l-1.6,0c-0.6,0-1.1,0.5-1.1,1.1l0,1.7c0,0.6,0.5,1.1,1.1,1.1l1.6,0c0.3,1.4,0.8,2.7,1.6,4l-1.1,1.1  c-0.4,0.4-0.4,1.1,0,1.6l1.2,1.2c0.4,0.4,1.1,0.4,1.6,0l1.1-1.1c1.2,0.8,2.6,1.4,4,1.6l0,1.6c0,0.6,0.5,1.1,1.1,1.1l1.7,0  c0.6,0,1.1-0.5,1.1-1.1l0-1.6c1.4-0.3,2.7-0.8,3.9-1.6l1.2,1.2c0.4,0.4,1.1,0.4,1.6,0l1.2-1.2c0.4-0.4,0.4-1.1,0-1.6L86.5,40  c0.8-1.2,1.4-2.6,1.6-3.9L89.8,36.1z M81.9,38.1c-2.2,2.2-5.8,2.2-8,0c-2.2-2.2-2.2-5.8,0-8c2.2-2.2,5.8-2.2,8,0  C84.1,32.3,84.1,35.9,81.9,38.1z M92.9,49.1c8.3-8.3,8.3-21.7,0-30c-8.3-8.3-21.7-8.3-30,0c-8,8-8.3,20.7-0.9,29l0.2,0.2  c-0.8,1.7-2.2,3.9-4.4,4.9c-0.7,0.4-0.6,1.4,0.2,1.6c2.4,0.4,5.8,0,9-2.5l0,0C75.3,57.2,85.9,56.1,92.9,49.1z M61.7,34.1  c0-9,7.3-16.2,16.2-16.2s16.2,7.3,16.2,16.2s-7.3,16.2-16.2,16.2S61.7,43.1,61.7,34.1z M50.7,40.2c-1.5,5.2-2.8,5.4-3.6,4.9  c-1,5.6-4,12.7-13.6,13.1c-9.8-0.8-12.9-8.1-13.8-13.7c-0.8-0.1-1.8-1.2-2.9-5.1c-1.5-5.4,0.1-6.2,1.5-6c-1-2.8-1-5.6-0.4-8.2  c0.7-3,2.3-5.5,4.2-7.3c1.2-1.2,2.5-2.3,3.9-3.2c1.1-0.8,2.4-1.5,3.8-1.9l0,0c1.1-0.4,2.2-0.6,3.4-0.7c3.7-0.3,6.5,0.6,8.6,1.8  c3,1.7,4.2,3.9,4.2,3.9s7.6,0.5,4.3,16.5C51.2,34.6,51.9,36,50.7,40.2z M66.8,88H33.9h-0.1H0.9c0.2-13.7-0.4-21,8.5-24.2  c8.1-3.1,12.9-6.2,12.9-6.2l6.2,19.7l0.9,2.7l2.8-7.9c-6.4-8.9,0.5-9.3,1.7-9.4v0c0,0,0,0,0,0c0,0,0,0,0,0c0,0,0,0,0,0c0,0,0,0,0,0  v0c1.2,0,8.1,0.4,1.7,9.4l2.8,7.9l0.9-2.7l6.2-19.7c0,0,4.8,3.2,12.9,6.2C67.2,67,66.6,74.3,66.8,88z" fill="#ffffff" style=""></path><desc>Created with Snap</desc><defs></defs></g><g><g transform="matrix(1.024,0,0,-1.024,0,0)"><path d="M909 38L909 0L610 0L610 38Q630 48 649 55Q668 62 690 67L690 485L695 602L687 602L654 495L461 0L415 0L223 491L187 608L178 608L179 481L179 71Q198 67 221 58Q244 49 264 38L264 0L20 0L20 38Q36 46 59 57Q83 68 104 72L104 633Q84 637 61 644Q39 651 22 662L22 700L293 700L446 293L475 197L476 197L506 295L662 700L910 700L910 662Q893 652 873 644Q854 637 834 633L834 66Q855 62 874 54Q894 46 909 38ZM1400 145Q1400 123 1400 107Q1401 91 1403 73L1472 63L1472 28Q1460 22 1439 16Q1419 10 1396 4Q1374 -1 1352 -5Q1330 -8 1313 -10L1279 -10Q1269 13 1267 36Q1265 59 1264 92L1259 92Q1254 72 1242 53Q1230 35 1211 20Q1193 6 1168 -3Q1143 -12 1112 -12Q1079 -12 1051 -2Q1023 8 1002 26Q981 44 969 69Q957 95 957 127Q957 172 974 201Q991 230 1027 248Q1064 267 1121 276Q1179 285 1261 289Q1269 375 1254 415Q1239 455 1189 455Q1158 455 1132 445L1085 325L1041 325Q1033 337 1025 352Q1018 368 1011 385Q1005 403 1000 421Q996 439 994 456Q1032 482 1092 497Q1152 512 1219 512Q1276 512 1312 499Q1348 487 1368 465Q1389 444 1397 415Q1405 386 1405 353Q1405 293 1402 244Q1400 196 1400 145ZM1175 68Q1196 68 1211 76Q1226 84 1236 95Q1247 106 1252 119Q1258 132 1261 142L1261 242Q1214 241 1184 236Q1154 231 1137 219Q1120 208 1113 190Q1107 173 1107 148Q1107 110 1125 89Q1143 68 1175 68ZM1927 102L1943 81Q1936 61 1920 44Q1904 28 1881 15Q1859 2 1830 -5Q1802 -12 1771 -12Q1705 -12 1657 6Q1610 25 1579 59Q1548 94 1533 142Q1518 191 1518 250Q1518 377 1587 444Q1657 512 1785 512Q1834 512 1875 501Q1916 491 1943 477Q1941 460 1937 439Q1934 419 1929 398Q1925 378 1919 358Q1913 339 1907 326L1858 326L1816 445Q1809 450 1801 452Q1793 455 1777 455Q1751 455 1732 445Q1713 436 1699 413Q1686 390 1679 352Q1673 314 1673 258Q1673 217 1682 182Q1691 148 1709 122Q1728 97 1756 82Q1784 68 1822 68Q1857 68 1883 78Q1909 88 1927 102ZM2599 39L2599 0L2334 0L2334 39Q2346 46 2359 52Q2372 58 2389 63L2389 265Q2389 351 2372 391Q2356 432 2308 432Q2268 432 2240 404Q2212 377 2200 341L2200 63Q2216 59 2228 54Q2241 49 2255 39L2255 0L1990 0L1990 39Q2021 55 2056 63L2056 669L1980 677L1980 716Q1995 722 2018 728Q2042 734 2068 738Q2094 743 2120 746Q2146 750 2166 752L2200 752L2200 399L2201 399Q2211 422 2228 442Q2245 463 2266 478Q2288 494 2313 503Q2338 512 2366 512Q2406 512 2437 502Q2469 493 2490 469Q2511 445 2522 404Q2533 364 2533 302L2533 63Q2550 59 2567 54Q2584 49 2599 39ZM2918 39L2918 0L2642 0L2642 39Q2657 47 2673 52Q2689 58 2708 63L2708 429L2642 437L2642 476Q2657 482 2679 488Q2702 494 2727 498Q2752 503 2776 506Q2800 510 2818 512L2852 512L2852 63Q2872 58 2888 52Q2904 47 2918 39ZM2691 664Q2691 699 2715 719Q2739 739 2777 739Q2815 739 2839 719Q2863 699 2863 664Q2863 630 2839 610Q2815 590 2777 590Q2739 590 2715 610Q2691 630 2691 664ZM3575 39L3575 0L3310 0L3310 39Q3323 46 3335 51Q3348 57 3365 63L3365 298Q3365 361 3347 396Q3329 432 3283 432Q3245 432 3217 407Q3190 383 3176 341L3176 63Q3192 59 3204 53Q3217 48 3231 39L3231 0L2966 0L2966 39Q2991 52 3032 63L3032 429L2966 437L2966 476Q2979 482 3000 487Q3021 493 3045 498Q3070 503 3095 506Q3121 510 3142 512L3176 512L3176 409L3177 409Q3198 451 3240 481Q3282 512 3342 512Q3381 512 3412 502Q3443 493 3464 469Q3486 445 3497 404Q3509 364 3509 302L3509 63Q3549 56 3575 39ZM4054 104L4073 84Q4065 67 4047 49Q4030 32 4004 18Q3979 5 3945 -4Q3912 -12 3873 -12Q3811 -12 3763 6Q3715 25 3683 59Q3651 94 3634 142Q3618 190 3618 250Q3618 378 3685 445Q3752 512 3871 512Q3922 512 3966 498Q4011 484 4040 452Q4070 420 4081 368Q4093 316 4080 241L3773 241Q3774 162 3813 115Q3853 68 3930 68Q3963 68 3998 78Q4034 88 4054 104ZM3867 455Q3847 455 3831 448Q3816 441 3804 422Q3793 404 3786 372Q3779 341 3776 293L3937 293Q3944 371 3928 413Q3912 455 3867 455ZM4414 662L4414 700L4742 700L4742 662Q4721 651 4695 643Q4670 636 4646 633L4646 65L4839 65L4906 244L4947 244Q4951 221 4954 190Q4958 159 4960 125Q4962 91 4963 58Q4964 25 4963 0L4414 0L4414 38Q4437 50 4457 57Q4478 64 4496 67L4496 633Q4447 641 4414 662ZM5444 104L5463 84Q5455 67 5437 49Q5420 32 5394 18Q5369 5 5335 -4Q5302 -12 5263 -12Q5201 -12 5153 6Q5105 25 5073 59Q5041 94 5024 142Q5008 190 5008 250Q5008 378 5075 445Q5142 512 5261 512Q5312 512 5356 498Q5401 484 5430 452Q5460 420 5471 368Q5483 316 5470 241L5163 241Q5164 162 5203 115Q5243 68 5320 68Q5353 68 5388 78Q5424 88 5444 104ZM5257 455Q5237 455 5221 448Q5206 441 5194 422Q5183 404 5176 372Q5169 341 5166 293L5327 293Q5334 371 5318 413Q5302 455 5257 455ZM5984 145Q5984 123 5984 107Q5985 91 5987 73L6056 63L6056 28Q6044 22 6023 16Q6003 10 5980 4Q5958 -1 5936 -5Q5914 -8 5897 -10L5863 -10Q5853 13 5851 36Q5849 59 5848 92L5843 92Q5838 72 5826 53Q5814 35 5795 20Q5777 6 5752 -3Q5727 -12 5696 -12Q5663 -12 5635 -2Q5607 8 5586 26Q5565 44 5553 69Q5541 95 5541 127Q5541 172 5558 201Q5575 230 5611 248Q5648 267 5705 276Q5763 285 5845 289Q5853 375 5838 415Q5823 455 5773 455Q5742 455 5716 445L5669 325L5625 325Q5617 337 5609 352Q5602 368 5595 385Q5589 403 5584 421Q5580 439 5578 456Q5616 482 5676 497Q5736 512 5803 512Q5860 512 5896 499Q5932 487 5952 465Q5973 444 5981 415Q5989 386 5989 353Q5989 293 5986 244Q5984 196 5984 145ZM5759 68Q5780 68 5795 76Q5810 84 5820 95Q5831 106 5836 119Q5842 132 5845 142L5845 242Q5798 241 5768 236Q5738 231 5721 219Q5704 208 5697 190Q5691 173 5691 148Q5691 110 5709 89Q5727 68 5759 68ZM6498 385L6361 385Q6349 379 6333 365Q6317 351 6304 319L6304 63Q6324 61 6344 55Q6364 50 6384 39L6384 0L6094 0L6094 39Q6112 49 6128 54Q6144 59 6160 63L6160 429L6094 437L6094 476Q6110 483 6133 489Q6157 495 6182 499Q6207 504 6230 507Q6254 510 6270 512L6304 512L6304 379L6308 379Q6316 401 6331 425Q6347 449 6368 469Q6389 489 6414 501Q6439 513 6466 512Q6477 498 6485 472Q6493 447 6498 424L6498 385ZM7134 39L7134 0L6869 0L6869 39Q6882 46 6894 51Q6907 57 6924 63L6924 298Q6924 361 6906 396Q6888 432 6842 432Q6804 432 6776 407Q6749 383 6735 341L6735 63Q6751 59 6763 53Q6776 48 6790 39L6790 0L6525 0L6525 39Q6550 52 6591 63L6591 429L6525 437L6525 476Q6538 482 6559 487Q6580 493 6604 498Q6629 503 6654 506Q6680 510 6701 512L6735 512L6735 409L6736 409Q6757 451 6799 481Q6841 512 6901 512Q6940 512 6971 502Q7002 493 7023 469Q7045 445 7056 404Q7068 364 7068 302L7068 63Q7108 56 7134 39ZM7453 39L7453 0L7177 0L7177 39Q7192 47 7208 52Q7224 58 7243 63L7243 429L7177 437L7177 476Q7192 482 7214 488Q7237 494 7262 498Q7287 503 7311 506Q7335 510 7353 512L7387 512L7387 63Q7407 58 7423 52Q7439 47 7453 39ZM7226 664Q7226 699 7250 719Q7274 739 7312 739Q7350 739 7374 719Q7398 699 7398 664Q7398 630 7374 610Q7350 590 7312 590Q7274 590 7250 610Q7226 630 7226 664ZM8110 39L8110 0L7845 0L7845 39Q7858 46 7870 51Q7883 57 7900 63L7900 298Q7900 361 7882 396Q7864 432 7818 432Q7780 432 7752 407Q7725 383 7711 341L7711 63Q7727 59 7739 53Q7752 48 7766 39L7766 0L7501 0L7501 39Q7526 52 7567 63L7567 429L7501 437L7501 476Q7514 482 7535 487Q7556 493 7580 498Q7605 503 7630 506Q7656 510 7677 512L7711 512L7711 409L7712 409Q7733 451 7775 481Q7817 512 7877 512Q7916 512 7947 502Q7978 493 7999 469Q8021 445 8032 404Q8044 364 8044 302L8044 63Q8084 56 8110 39ZM8386 512Q8451 512 8494 498Q8537 485 8559 465Q8606 516 8667 536Q8674 531 8681 521Q8688 512 8693 501Q8698 490 8701 479Q8704 468 8704 461L8691 437L8586 437Q8597 423 8606 400Q8616 378 8616 347Q8616 314 8602 285Q8588 256 8559 233Q8531 211 8487 198Q8444 185 8386 185Q8369 185 8355 185Q8342 186 8332 188Q8328 182 8323 173Q8319 165 8319 157Q8319 140 8343 130Q8367 120 8404 112Q8441 104 8483 94Q8526 84 8563 67Q8600 51 8625 24Q8650 -2 8651 -44Q8652 -84 8631 -115Q8610 -146 8573 -168Q8537 -189 8487 -201Q8438 -212 8382 -212Q8316 -212 8269 -202Q8223 -191 8194 -173Q8165 -155 8151 -132Q8138 -109 8138 -84Q8138 -56 8149 -36Q8160 -16 8180 -1Q8200 14 8226 24Q8253 34 8285 42Q8270 46 8256 52Q8242 58 8231 66Q8220 75 8213 86Q8206 98 8206 113Q8206 126 8214 138Q8222 151 8235 161Q8248 172 8263 180Q8278 189 8293 195Q8230 209 8193 249Q8156 290 8156 353Q8156 428 8218 470Q8280 512 8386 512ZM8512 -76Q8512 -49 8495 -33Q8479 -16 8453 -6Q8427 5 8394 12Q8362 20 8330 30Q8304 10 8293 -10Q8282 -30 8282 -58Q8282 -104 8313 -130Q8345 -155 8402 -155Q8458 -155 8485 -132Q8512 -108 8512 -76ZM8300 348Q8300 296 8317 269Q8335 242 8386 242Q8435 242 8453 269Q8472 297 8472 348Q8472 402 8453 428Q8434 455 8386 455Q8336 455 8318 429Q8300 403 8300 348Z" fill="#ffffff" style=""></path></g></g></g></svg>