<svg version="1.1" xmlns="http://www.w3.org/2000/svg" viewBox="-1907.874403832669 -1290.45 5110.074403832668 1986.9"><desc>Created with Snap</desc><defs></defs><g><g transform="matrix(15.2497,0,0,15.2497,-1676.9236,-1059.4828)"><g transform="translate(0,-952.36218)"><path style="" d="m 45.719885,957.36164 3.18651,38.66594 c -0.0104,0.002 -0.0207,0.005 -0.0312,0.007 -0.004,7.7e-4 -0.008,0.002 -0.0117,0.003 -0.0463,0.009 -0.093,0.0154 -0.13911,0.0247 -0.004,7.6e-4 -0.008,0.002 -0.0116,0.003 -0.0493,0.01 -0.0979,0.0214 -0.14692,0.0325 -0.006,9.5e-4 -0.0104,0.003 -0.0156,0.004 -0.2469,0.0566 -0.49069,0.12668 -0.72935,0.21192 -0.0121,0.005 -0.0243,0.009 -0.0364,0.013 -0.0131,0.005 -0.026,0.009 -0.039,0.0143 l -16.53063,-35.06206 -7.4261,4.25388 22.0885,31.88727 c -0.0888,0.0738 -0.17625,0.14988 -0.26131,0.22881 -0.007,0.007 -0.0138,0.013 -0.0208,0.0195 -0.0278,0.026 -0.0546,0.0528 -0.082,0.0793 -0.0108,0.0104 -0.0218,0.0207 -0.0325,0.0312 -0.027,0.0265 -0.054,0.0535 -0.0806,0.0806 -0.12959,0.13168 -0.25391,0.2685 -0.37052,0.40953 l -31.84697,-22.10018 -4.30459,7.3975 35.07899,16.57354 c -0.003,0.01 -0.006,0.016 -0.009,0.025 -0.0102,0.028 -0.0201,0.055 -0.0299,0.083 -0.004,0.012 -0.008,0.023 -0.0116,0.035 -0.01,0.029 -0.0205,0.057 -0.0299,0.086 -0.008,0.023 -0.0149,0.046 -0.0221,0.069 -0.0107,0.034 -0.0211,0.068 -0.0312,0.1014 -0.005,0.015 -0.009,0.029 -0.013,0.044 -0.009,0.032 -0.0187,0.063 -0.0273,0.095 -0.005,0.019 -0.009,0.037 -0.0143,0.056 -0.007,0.023 -0.0123,0.047 -0.0182,0.07 -0.004,0.015 -0.007,0.029 -0.0104,0.044 -0.0341,0.1397 -0.0639,0.2792 -0.0884,0.4199 l -38.65164,-3.1839 0.0299,8.5572 38.61653,-3.2138 c 0.0675,0.4021 0.1727,0.7969 0.31462,1.1792 l -35.06208,16.5293 4.25389,7.4274 31.88726,-22.0898 c 0.25307,0.3044 0.53719,0.5885 0.85027,0.8463 l -22.10152,31.8496 7.3975,4.3046 16.57354,-35.0803 c 0.37654,0.1391 0.76017,0.2403 1.14668,0.3055 l -3.18652,38.6634 8.55848,-0.03 -3.21511,-38.6374 c 0.0264,-0 0.053,-0.01 0.0793,-0.014 0.0321,-0.01 0.0642,-0.012 0.0962,-0.018 0.0335,-0.01 0.0668,-0.014 0.10011,-0.021 0.29999,-0.063 0.59199,-0.1459 0.87496,-0.2496 l 16.57481,35.0816 7.39621,-4.3046 -22.1015,-31.8496 c 0.30851,-0.2541 0.59265,-0.5371 0.84895,-0.8437 l 31.88727,22.0898 4.25388,-7.4274 -35.05427,-16.5268 c 0.14193,-0.3794 0.24892,-0.7761 0.31722,-1.1856 l 38.63343,3.2151 0.0299,-8.55722 -38.66854,3.18522 c -0.0674,-0.3924 -0.17038,-0.773 -0.30551,-1.1376 l 35.06857,-16.56831 -4.30458,-7.3975 -31.84437,22.0989 c -0.0287,-0.0346 -0.0565,-0.0688 -0.0858,-0.1027 -0.10171,-0.11774 -0.20865,-0.23059 -0.31853,-0.34063 -9.4e-4,-9.5e-4 -0.002,-0.003 -0.003,-0.004 -0.0341,-0.0341 -0.0691,-0.068 -0.104,-0.10142 -0.002,-0.002 -0.005,-0.005 -0.007,-0.007 -0.035,-0.0333 -0.071,-0.0663 -0.10661,-0.0988 -0.002,-0.002 -0.004,-0.005 -0.007,-0.007 -0.0357,-0.0325 -0.0714,-0.0633 -0.10791,-0.0949 -0.002,-0.002 -0.004,-0.005 -0.007,-0.007 -0.0335,-0.0291 -0.0686,-0.0575 -0.1027,-0.0858 l 22.08718,-31.88469 -7.42611,-4.25387 -16.52802,35.05687 c -0.37416,-0.13875 -0.76416,-0.24216 -1.16748,-0.30943 l 3.2151,-38.63342 -8.55848,-0.0299 z" fill="#38444d" fill-opacity="1" fill-rule="nonzero" stroke="none"></path></g><desc>Created with Snap</desc><defs></defs></g><g><g transform="matrix(1,0,0,-1,0,0)"><path d="M116 572L303 572Q417 572 474 513Q521 466 522 390Q522 315 474 267Q416 208 303 208L154 208L154 33Q154 18 143 7Q132 -4 116 -4Q101 -4 90 7Q79 18 79 33L79 534Q79 549 90 560Q101 572 116 572ZM154 278L296 278Q380 278 418 314Q448 342 447 390Q447 466 371 491Q341 501 296 502L154 502L154 278ZM822 357Q750 357 687 278L687 33Q687 18 676 7Q665 -4 650 -4Q635 -4 624 7Q613 18 613 33L613 565Q613 581 623 591Q634 602 650 602Q665 602 676 591Q687 581 687 565L687 350Q720 384 744 399Q790 426 832 426Q875 426 902 413Q929 401 948 378Q986 333 986 266L986 33Q986 18 975 7Q964 -4 949 -4Q934 -4 923 7Q912 18 912 33L912 258Q912 304 891 330Q870 357 822 357ZM1126 397Q1195 427 1269 426Q1352 426 1398 375Q1439 331 1440 265L1440 33Q1440 18 1428 7Q1417 -4 1401 -4Q1386 -4 1375 7Q1364 18 1364 33L1364 54Q1342 31 1305 11Q1268 -8 1211 -8Q1154 -8 1116 25Q1077 59 1077 114Q1077 175 1123 210Q1173 248 1265 247L1364 247L1364 254Q1364 309 1337 332Q1311 355 1255 355Q1208 355 1146 336Q1140 334 1131 334Q1123 334 1114 342Q1105 351 1104 369Q1104 388 1126 397ZM1152 123Q1152 57 1239 58Q1277 58 1310 76Q1344 95 1364 118L1364 187L1276 187Q1218 187 1185 172Q1152 158 1152 123ZM1774 357Q1702 357 1639 278L1639 33Q1639 18 1628 7Q1617 -4 1602 -4Q1587 -4 1576 7Q1565 18 1565 33L1565 384Q1565 400 1575 411Q1586 422 1602 422Q1617 422 1628 411Q1639 401 1639 384L1639 350Q1672 384 1696 399Q1742 426 1784 426Q1827 426 1854 413Q1881 401 1900 378Q1938 333 1938 266L1938 33Q1938 18 1927 7Q1916 -4 1901 -4Q1886 -4 1875 7Q1864 18 1864 33L1864 258Q1864 304 1843 330Q1822 357 1774 357ZM2113 182Q2120 127 2155 94Q2191 62 2253 62Q2316 62 2360 82Q2374 89 2385 89Q2396 90 2405 81Q2415 72 2415 61Q2415 39 2397 30Q2380 21 2366 14Q2352 7 2336 2Q2299 -8 2250 -8Q2149 -8 2093 48Q2038 105 2038 209Q2038 299 2085 359Q2138 426 2234 426Q2326 426 2379 364Q2429 306 2429 219Q2429 204 2418 193Q2408 182 2392 182L2113 182ZM2234 363Q2161 363 2128 298Q2116 275 2113 243L2355 243Q2352 301 2312 335Q2280 363 2234 363ZM2579 182Q2586 127 2621 94Q2657 62 2719 62Q2782 62 2826 82Q2840 89 2851 89Q2862 90 2871 81Q2881 72 2881 61Q2881 39 2863 30Q2846 21 2832 14Q2818 7 2802 2Q2765 -8 2716 -8Q2615 -8 2559 48Q2504 105 2504 209Q2504 299 2551 359Q2604 426 2700 426Q2792 426 2845 364Q2895 306 2895 219Q2895 204 2884 193Q2874 182 2858 182L2579 182ZM2700 363Q2627 363 2594 298Q2582 275 2579 243L2821 243Q2818 301 2778 335Q2746 363 2700 363Z" fill="#fca164" style=""></path></g></g></g></svg>