<svg version="1.1" xmlns="http://www.w3.org/2000/svg" viewBox="-2493.037571606922 -1623.325 6081.237571606922 2551.65"><desc>Created with Snap</desc><defs></defs><g><g transform="matrix(20.7846,0,0,20.7846,-2296.4948,-1396.0003)"><path d="M83.516,20.963c7.563,8.08,12.194,18.943,12.194,30.883c0,24.959-20.234,45.203-45.193,45.203S5.324,76.834,5.324,51.876  c0-7.598,1.875-14.716,5.186-21l0.003,0.057c-0.164,1.22-0.249,2.492-0.249,3.757c0,6.928,2.537,14.309,6.731,18.309h-0.002  c-1.646-4-2.552-8.408-2.552-13.015C14.442,26.331,22.404,14,33.938,9h-0.001c-6.814,5-11.14,14.207-11.14,23.839  c0,17.386,14.095,31.247,31.482,31.247c17.388,0,31.483-14.073,31.483-31.459c0-4.13-0.795-8.062-2.241-11.675 M81.446,28.881  C80.176,40.423,70.393,49.4,58.514,49.4c-12.742,0-23.071-10.329-23.071-23.07c0-10.96,7.643-20.136,17.891-22.487l-0.05,0.01  c-14.73,0.465-26.529,12.554-26.529,27.398c0,15.138,12.271,27.409,27.409,27.409c15.14,0,27.412-12.271,27.412-27.409  c0-0.844-0.039-1.678-0.113-2.502 M42.731,34.483c3.032,6.443,9.582,10.91,17.175,10.91c10.478,0,18.972-8.133,18.972-18.609  c0-1.788-0.247-2.784-0.711-4.784h0.003c-2.626,9-11.665,16.854-22.41,16.854c-4.8,0-9.259-1.663-12.958-4.162" fill="#e8715b" style=""></path><desc>Created with Snap</desc><defs></defs></g><g><g transform="matrix(0.5,0,0,-0.5,0,0)"><path d="M836 1317L836 131Q836 54 795 19Q755 -16 672 -16Q588 -16 548 19Q508 54 508 131L508 1327Q508 1382 432 1382Q377 1382 320 1365Q264 1349 218 1320Q173 1292 144 1252Q115 1213 115 1167Q115 1135 123 1116Q132 1097 143 1087Q154 1078 165 1075Q177 1073 182 1073Q207 1073 223 1081Q239 1090 252 1099Q265 1109 276 1117Q288 1126 303 1126Q315 1126 328 1120Q342 1115 353 1103Q365 1091 373 1071Q381 1052 381 1024Q381 984 365 955Q350 926 325 906Q301 887 269 877Q238 868 207 868Q159 868 120 884Q82 901 55 930Q28 959 14 998Q0 1037 0 1081Q0 1164 31 1227Q62 1291 118 1337Q175 1383 254 1413Q333 1444 429 1462Q525 1480 634 1487Q744 1495 862 1495Q1148 1495 1295 1385Q1442 1276 1442 1071Q1442 971 1415 894Q1389 817 1344 761Q1300 706 1242 671Q1184 637 1122 622Q1060 607 997 610Q935 613 881 633L895 676Q970 653 1018 674Q1067 696 1094 751Q1122 806 1132 890Q1143 974 1143 1075Q1143 1151 1127 1213Q1111 1276 1083 1320Q1056 1364 1019 1388Q983 1413 942 1413Q910 1413 889 1403Q869 1394 857 1379Q846 1365 841 1348Q837 1332 836 1317ZM1896 1391L1896 848Q1933 901 1980 943Q1999 961 2022 978Q2046 995 2072 1008Q2099 1022 2128 1030Q2158 1038 2189 1038Q2256 1038 2309 1012Q2362 986 2398 925Q2434 864 2453 763Q2472 663 2472 514Q2472 369 2446 262Q2420 155 2378 80Q2336 5 2283 -43Q2230 -90 2176 -117Q2122 -144 2072 -155Q2022 -165 1986 -166L1976 -125Q2021 -114 2056 -84Q2091 -54 2115 14Q2139 83 2151 199Q2164 315 2164 498Q2164 624 2152 699Q2141 775 2122 814Q2104 854 2080 866Q2057 879 2033 879Q2004 879 1982 863Q1960 848 1943 828Q1927 808 1915 788Q1904 768 1896 758L1896 90Q1896 77 1892 58Q1888 40 1872 23Q1857 7 1826 -5Q1796 -16 1743 -16Q1690 -16 1659 -4Q1628 9 1612 26Q1597 43 1593 61Q1589 79 1589 90L1589 1380Q1589 1409 1575 1430Q1562 1452 1530 1452Q1513 1452 1500 1446Q1488 1441 1474 1430L1454 1454Q1477 1473 1505 1491Q1533 1510 1566 1524Q1600 1538 1638 1547Q1676 1556 1718 1556Q1783 1556 1819 1538Q1855 1521 1872 1495Q1889 1470 1892 1441Q1896 1413 1896 1391ZM3129 274L3129 518Q3129 543 3113 556Q3097 569 3072 569Q3037 569 3005 553Q2974 537 2950 506Q2926 475 2912 429Q2898 384 2898 324Q2898 266 2906 228Q2915 190 2929 167Q2944 145 2963 136Q2982 127 3003 127Q3029 127 3052 140Q3075 154 3092 175Q3109 196 3119 222Q3129 248 3129 274ZM2970 956Q2936 956 2907 948Q2878 940 2857 928Q2836 916 2824 901Q2812 887 2812 874Q2812 859 2827 852Q2843 846 2862 837Q2881 829 2896 813Q2912 798 2912 766Q2912 745 2903 727Q2895 710 2880 696Q2866 683 2846 675Q2827 668 2806 668Q2750 668 2715 706Q2681 744 2681 807Q2681 868 2713 911Q2745 955 2796 983Q2848 1011 2913 1024Q2978 1038 3043 1038Q3121 1038 3192 1021Q3263 1004 3317 967Q3372 930 3404 873Q3437 816 3437 735L3437 170Q3437 161 3438 150Q3439 139 3443 130Q3447 121 3455 115Q3463 109 3478 109Q3496 109 3511 122Q3527 136 3539 150L3564 129Q3549 108 3528 83Q3507 58 3477 36Q3447 14 3407 -1Q3367 -16 3316 -16Q3253 -16 3204 21Q3155 59 3140 137Q3108 94 3073 65Q3039 36 3003 18Q2967 0 2930 -8Q2894 -16 2857 -16Q2809 -16 2764 -1Q2719 14 2683 46Q2648 79 2626 131Q2605 183 2605 258Q2605 349 2641 407Q2677 465 2735 504Q2794 544 2868 572Q2943 600 3021 631Q3079 654 3105 699Q3132 745 3132 793Q3132 867 3088 911Q3045 956 2970 956ZM4287 498Q4287 624 4275 699Q4264 775 4245 814Q4226 854 4203 866Q4180 879 4156 879Q4127 879 4104 863Q4082 848 4065 828Q4049 808 4037 788Q4026 768 4018 758L4018 90Q4018 77 4014 58Q4010 40 3994 23Q3979 7 3948 -5Q3918 -16 3865 -16Q3812 -16 3781 -4Q3751 9 3735 26Q3719 43 3715 61Q3711 79 3711 90L3711 862Q3711 891 3697 912Q3684 934 3652 934Q3635 934 3623 928Q3611 922 3597 911L3576 936Q3599 955 3627 973Q3656 992 3689 1006Q3722 1020 3760 1029Q3798 1038 3840 1038Q3905 1038 3941 1016Q3977 995 3994 965Q4011 935 4014 902Q4018 870 4018 848Q4055 901 4102 943Q4121 961 4144 978Q4168 995 4194 1008Q4221 1022 4250 1030Q4280 1038 4311 1038Q4379 1038 4431 1012Q4484 986 4520 925Q4556 864 4575 763Q4594 663 4594 514Q4594 369 4568 262Q4542 155 4500 80Q4458 5 4405 -43Q4352 -90 4298 -117Q4244 -144 4194 -155Q4145 -165 4109 -166L4098 -125Q4128 -118 4153 -103Q4179 -88 4200 -59Q4221 -30 4237 14Q4253 59 4264 126Q4276 193 4281 284Q4287 376 4287 498ZM5454 692L5059 459Q5059 427 5068 389Q5078 352 5096 314Q5114 276 5140 241Q5167 207 5201 180Q5236 153 5278 137Q5320 121 5370 121Q5405 121 5435 129Q5465 137 5491 151Q5517 165 5541 183Q5565 202 5589 223L5614 199Q5591 168 5555 131Q5519 94 5468 61Q5417 29 5349 7Q5281 -14 5194 -14Q5107 -14 5024 17Q4942 49 4878 112Q4814 175 4775 269Q4737 363 4737 489Q4737 580 4760 656Q4783 732 4822 793Q4862 854 4914 900Q4967 946 5025 976Q5083 1007 5143 1022Q5204 1038 5260 1038Q5334 1038 5389 1022Q5444 1006 5480 979Q5517 952 5535 916Q5553 881 5553 842Q5553 795 5526 757Q5499 720 5454 692ZM5049 541L5260 662Q5273 670 5281 677Q5290 685 5295 695Q5300 706 5302 721Q5305 737 5305 760Q5305 785 5299 815Q5294 846 5281 873Q5268 900 5248 918Q5228 936 5200 936Q5164 936 5138 914Q5113 893 5096 859Q5080 825 5070 781Q5061 738 5056 694Q5051 650 5050 609Q5049 569 5049 541ZM6402 692L6007 459Q6007 427 6016 389Q6026 352 6044 314Q6062 276 6088 241Q6115 207 6149 180Q6184 153 6226 137Q6268 121 6318 121Q6353 121 6383 129Q6413 137 6439 151Q6465 165 6489 183Q6513 202 6537 223L6562 199Q6539 168 6503 131Q6467 94 6416 61Q6365 29 6297 7Q6229 -14 6142 -14Q6055 -14 5972 17Q5890 49 5826 112Q5762 175 5723 269Q5685 363 5685 489Q5685 580 5708 656Q5731 732 5770 793Q5810 854 5862 900Q5915 946 5973 976Q6031 1007 6091 1022Q6152 1038 6208 1038Q6282 1038 6337 1022Q6392 1006 6428 979Q6465 952 6483 916Q6501 881 6501 842Q6501 795 6474 757Q6447 720 6402 692ZM5997 541L6208 662Q6221 670 6229 677Q6238 685 6243 695Q6248 706 6250 721Q6253 737 6253 760Q6253 785 6247 815Q6242 846 6229 873Q6216 900 6196 918Q6176 936 6148 936Q6112 936 6086 914Q6061 893 6044 859Q6028 825 6018 781Q6009 738 6004 694Q5999 650 5998 609Q5997 569 5997 541Z" fill="#e8715b" style=""></path></g></g></g></svg>