<svg version="1.1" xmlns="http://www.w3.org/2000/svg" viewBox="-262.2 -1475.075 5907.6427532270945 2250.15"><desc>Created with Snap</desc><defs></defs><g><g transform="matrix(18.8505,0,0,18.8505,3547.4476,-1292.5332)"><g><path d="M82.966,30.566c-6.635,0-12.033,5.398-12.033,12.033c0,0.727,0.075,1.433,0.199,2.123l-10.315,3.353   c-1.494-3.082-4.28-5.515-7.852-6.425c-0.438-0.111-0.885-0.19-1.332-0.252V30.556c5.863-0.803,10.398-5.83,10.398-11.908   c0-6.636-5.399-12.035-12.035-12.035s-12.032,5.399-12.032,12.035c0,6.078,4.534,11.105,10.396,11.908v10.843   c-4.001,0.546-7.442,3.066-9.186,6.676l-10.306-3.349c0.124-0.69,0.199-1.398,0.199-2.125c0-6.635-5.398-12.032-12.033-12.032   C10.398,30.568,5,35.966,5,42.601c0,6.636,5.398,12.035,12.034,12.035c4.756,0,8.865-2.781,10.817-6.797l10.314,3.352   c-0.729,4.059,0.688,8.077,3.507,10.794l-6.368,8.765c-1.693-0.91-3.627-1.43-5.68-1.43c-6.636,0-12.035,5.398-12.035,12.033   c0,6.636,5.399,12.035,12.035,12.035c6.635,0,12.032-5.399,12.032-12.035c0-3.405-1.429-6.479-3.71-8.67l6.377-8.774   c0.841,0.45,1.739,0.818,2.704,1.063c0.976,0.248,1.977,0.373,2.975,0.373c2.035,0,3.973-0.512,5.676-1.426l6.368,8.763   c-2.283,2.192-3.712,5.266-3.712,8.671c0,6.636,5.399,12.035,12.035,12.035c6.635,0,12.033-5.399,12.033-12.035   c0-6.635-5.398-12.033-12.033-12.033c-2.054,0-3.987,0.52-5.68,1.43l-6.365-8.76c1.579-1.517,2.761-3.469,3.332-5.709   c0.438-1.721,0.468-3.447,0.17-5.09l10.321-3.354c1.952,4.016,6.061,6.798,10.817,6.798C89.602,54.634,95,49.235,95,42.6   C95,35.965,89.602,30.566,82.966,30.566z M17.034,51.362c-4.831,0-8.761-3.931-8.761-8.762c0-4.829,3.93-8.759,8.761-8.759   c4.829,0,8.76,3.93,8.76,8.759C25.794,47.432,21.863,51.362,17.034,51.362z M38.384,81.353c0,4.831-3.93,8.762-8.759,8.762   c-4.831,0-8.762-3.931-8.762-8.762c0-4.829,3.931-8.759,8.762-8.759C34.454,72.594,38.384,76.523,38.384,81.353z M70.37,72.594   c4.829,0,8.76,3.93,8.76,8.759c0,4.831-3.931,8.762-8.76,8.762c-4.83,0-8.762-3.931-8.762-8.762   C61.608,76.523,65.54,72.594,70.37,72.594z M41.237,18.647c0-4.831,3.929-8.762,8.759-8.762c4.831,0,8.761,3.931,8.761,8.762   c0,4.829-3.93,8.759-8.761,8.759C45.166,27.406,41.237,23.477,41.237,18.647z M58.484,55.474c-0.988,3.884-4.478,6.598-8.481,6.598   c-0.728,0-1.456-0.092-2.168-0.273c-4.678-1.19-7.516-5.967-6.325-10.646c0.991-3.886,4.479-6.6,8.483-6.6   c0.727,0,1.454,0.092,2.165,0.272C56.836,46.018,59.674,50.795,58.484,55.474z M82.966,51.36c-4.829,0-8.76-3.931-8.76-8.761   s3.931-8.76,8.76-8.76c4.831,0,8.761,3.93,8.761,8.76S87.797,51.36,82.966,51.36z" fill="#fc766a" style=""></path></g><desc>Created with Snap</desc><defs></defs></g><g><g transform="matrix(0.5,0,0,-0.5,0,0)"><path d="M917 1049Q917 1346 641 1346Q597 1346 563 1340L563 1421L650 1421Q1042 1421 1158 1217Q1199 1146 1199 1056Q1199 967 1166 898Q1134 829 1069 778Q929 668 679 668L563 668L563 743Q745 743 828 808Q917 880 917 1049ZM480 1421L480 238Q480 169 485 144Q491 120 508 107Q525 95 549 88Q573 82 601 76Q629 71 655 59L655 0L90 0L90 59Q107 71 128 76Q150 81 170 88Q218 103 224 144Q230 186 230 240L230 1182Q230 1293 204 1314Q183 1331 145 1340Q108 1350 90 1362L90 1421L480 1421ZM1641 1427L1641 158Q1641 111 1682 90Q1701 80 1723 72Q1746 65 1767 53L1767 0L1301 0L1301 53Q1323 65 1345 72Q1368 80 1386 90Q1427 111 1427 158L1427 1262Q1427 1316 1387 1334Q1369 1343 1346 1348Q1323 1354 1299 1366L1299 1427L1641 1427ZM1874 901Q1792 901 1724 839L1724 948Q1812 1008 1928 1008Q2062 1008 2148 936Q2241 858 2241 725L2241 158Q2241 112 2283 90Q2301 80 2323 72Q2345 65 2365 53L2365 0L1978 0L1978 72Q1978 90 1986 99Q1994 109 2003 118Q2028 145 2028 176L2028 729Q2028 901 1874 901ZM2990 594L2990 510Q2722 413 2722 227Q2722 152 2758 106Q2794 61 2865 61Q2937 61 2990 114L2990 19Q2913 -27 2816 -27Q2719 -27 2660 -8Q2602 11 2562 44Q2479 111 2479 221Q2479 448 2882 564Q2939 581 2990 594ZM2753 868Q2808 847 2808 772Q2808 724 2774 695Q2740 666 2682 666Q2625 666 2591 697Q2558 728 2558 777Q2558 826 2581 865Q2604 904 2646 934Q2733 997 2865 1007L2865 931Q2784 923 2753 868ZM3348 99Q3403 99 3418 199L3469 172Q3459 75 3415 24Q3372 -27 3277 -27Q3203 -27 3167 0Q3109 44 3073 133L3073 756Q3073 818 3040 863Q3008 909 2948 925L2948 1007Q3287 989 3287 649L3287 176Q3287 99 3348 99ZM4118 901Q4035 901 3966 836L3966 945Q4054 1008 4173 1008Q4311 1008 4396 936Q4483 861 4483 725L4483 199Q4483 104 4522 88Q4534 83 4548 80Q4586 70 4607 53L4607 0L4220 0L4220 68Q4220 87 4237 103Q4254 119 4262 130Q4270 142 4270 164L4270 735Q4270 901 4118 901ZM3883 987L3883 203Q3883 109 3923 90Q3935 85 3949 80Q3990 67 4009 53L4009 0L3543 0L3543 53Q3561 67 3588 76Q3616 85 3628 90Q3641 95 3650 108Q3669 134 3669 201L3669 778Q3669 877 3630 893Q3618 898 3604 902Q3560 912 3541 926L3541 987L3883 987ZM5053 596L5380 596Q5380 884 5236 920L5236 1006Q5423 989 5524 849Q5619 718 5619 508L5053 508L5053 596ZM5240 -26L5240 61Q5414 69 5487 225Q5508 270 5523 317L5609 285Q5553 76 5380 4Q5319 -21 5240 -26ZM4969 553Q4969 123 5157 69L5157 -23Q4961 -1 4846 140Q4731 279 4731 489Q4731 710 4846 852Q4962 995 5153 1007L5153 924Q4969 902 4969 553ZM6103 596L6430 596Q6430 884 6286 920L6286 1006Q6473 989 6574 849Q6669 718 6669 508L6103 508L6103 596ZM6290 -26L6290 61Q6464 69 6537 225Q6558 270 6573 317L6659 285Q6603 76 6430 4Q6369 -21 6290 -26ZM6019 553Q6019 123 6207 69L6207 -23Q6011 -1 5896 140Q5781 279 5781 489Q5781 710 5896 852Q6012 995 6203 1007L6203 924Q6019 902 6019 553Z" fill="#5b84b1" style=""></path></g></g></g></svg>