<svg version="1.1" xmlns="http://www.w3.org/2000/svg" viewBox="-262.14399642944335 -1080.3200561523438 9161.7291015625 4336.128076171874"><desc>Created with Snap</desc><defs></defs><g><g transform="matrix(25.0149,0,0,25.0149,3067.6178,514.6624)"><path d="M50,44.5c6.2,0,11.2-5,11.2-11.2S56.2,22,50,22c-6.2,0-11.2,5-11.2,11.2S43.8,44.5,50,44.5z M50,26.3c0.9,0,1.6,0.7,1.6,1.6  s-0.7,1.6-1.6,1.6c-2.1,0-3.7,1.7-3.7,3.7c0,0.9-0.7,1.6-1.6,1.6c-0.9,0-1.6-0.7-1.6-1.6C43,29.4,46.2,26.3,50,26.3z M22.1,37.7  l3.8,0c0.6,3.3,1.9,6.4,3.8,9.3L27,49.7c-1,1-1,2.6,0,3.6l2.8,2.8c1,1,2.6,1,3.6,0l2.7-2.7c2.8,1.9,6,3.2,9.2,3.8l0,3.8  c0,1.4,1.1,2.6,2.6,2.6l4,0c1.4,0,2.6-1.1,2.6-2.6l0-3.8c3.2-0.6,6.4-1.9,9.2-3.8l2.7,2.7c1,1,2.6,1,3.6,0l2.8-2.8c1-1,1-2.6,0-3.6  l-2.7-2.7c1.9-2.8,3.2-5.9,3.8-9.2l3.9,0c1.4,0,2.6-1.1,2.6-2.6l0-4c0-1.4-1.1-2.6-2.6-2.6l-3.9,0c-0.6-3.2-1.9-6.3-3.8-9.1l2.8-2.8  c1-1,1-2.6,0-3.6l-2.8-2.8c-1-1-2.6-1-3.6,0l-2.8,2.8c-2.8-1.9-5.9-3.2-9.1-3.8l0-3.9c0-1.4-1.1-2.6-2.6-2.6l-4,0  c-1.4,0-2.6,1.1-2.6,2.6l0,3.9c-3.2,0.6-6.4,1.8-9.2,3.7l-2.7-2.7c-1-1-2.6-1-3.6,0l-2.8,2.8c-1,1-1,2.6,0,3.6l2.7,2.7  c-1.9,2.8-3.2,6-3.9,9.2l-3.8,0c-1.4,0-2.6,1.1-2.6,2.6l0,4C19.6,36.6,20.7,37.7,22.1,37.7z M50,16.7c9.2,0,16.6,7.4,16.6,16.6  S59.2,49.9,50,49.9c-9.2,0-16.6-7.4-16.6-16.6S40.8,16.7,50,16.7z M4,61.6L1.5,37.2C1.4,36,1.8,34.7,2.7,34c1.1-0.9,2.9-1.2,4.2,0.3  c0.9,1.1,1.4,4.4,1.5,5.3c0.5,3.2,1.1,7.8,1.2,11c0,0.2,0,0.5,0,0.7c0.1,1.4,0.4,2.7,1,4c3.3,7.1,9.8,16,9.8,16l0.4,0.5  c0.3,0.4,0.8,0.5,1.2,0.3c0.5-0.3,0.6-0.9,0.4-1.3l-8.6-14.1c-0.9-1.6-0.4-3.8,1.3-4.8c1.7-1,3.9-0.5,4.8,1.1l9,11.6  c0.6,0.8,1.7,1.8,2.5,2.4c8.1,5.8,9.2,11.7,9.9,14.8c0,0,0.1,0.7,0.1,1.7h0l0,0c0,0.8,0,1.8-0.2,2.8l-0.5,9.7c0,0.7-0.6,1.3-1.3,1.3  l-15.2-0.1c-0.7,0-1.3-0.6-1.3-1.3l-0.3-8L8.2,70.3c-2.1-2.3-3.6-4.8-4-7.9L4,61.6z M11.2,38.5c-0.1-0.8-0.3-1.7-0.6-2.6  c1.3,0.4,2,1.3,2.3,2.6c0.7,2.5,1.5,7.2,1.9,9.8c0,0,0,0.1-0.1,0.1c-0.5,0.2-0.9,0.4-1.4,0.6c-0.4,0.2-0.7,0.5-1,0.7  c0-0.3,0-0.5,0-0.8C12.3,46.2,11.7,41.3,11.2,38.5z M17.1,46.4c-0.2-1.8-1.3-5.1-1.7-7c1.2,0.4,1.9,1.3,2.3,2.5  c0.4,1.5,1.5,4.8,1.7,6.4C18.8,48.1,18,48,17.3,48c0-0.1,0-0.2,0-0.3L17.1,46.4z M97.3,34c0.9,0.8,1.4,2,1.2,3.2L96,61.6l-0.1,0.9  c-0.5,3.1-1.9,5.6-4,7.9L77.4,87.8l-0.3,8c0,0.7-0.6,1.3-1.3,1.3l-15.2,0.1c-0.7,0-1.3-0.6-1.3-1.3l-0.5-9.7c-0.1-1-0.2-2-0.2-2.8v0  c0-1,0.1-1.7,0.1-1.7c0.7-3,1.8-8.9,9.9-14.8c0.8-0.6,1.9-1.7,2.5-2.4l9-11.6c0.9-1.6,3.1-2.1,4.8-1.1c1.7,1,2.2,3.3,1.3,4.8  l-8.6,14.1c-0.3,0.5-0.1,1.1,0.4,1.3c0.4,0.2,1,0.1,1.2-0.3l0.4-0.5c0,0,6.5-8.9,9.8-16c0.6-1.3,0.9-2.6,1-4c0-0.2,0-0.5,0-0.7  c0.1-3.2,0.6-7.8,1.2-11c0.2-0.9,0.6-4.2,1.5-5.3C94.3,32.7,96.1,33.1,97.3,34z M85.2,48.3C85.2,48.3,85.2,48.3,85.2,48.3  c0.3-2.6,1.2-7.4,1.8-9.8c0.3-1.2,1.1-2.1,2.3-2.6c-0.3,0.9-0.4,1.7-0.6,2.6c-0.5,2.8-1.1,7.7-1.2,10.4c0,0.3,0,0.5,0,0.8  c-0.3-0.3-0.6-0.5-1-0.7C86.2,48.7,85.7,48.5,85.2,48.3z M82.7,48c-0.7,0-1.5,0.2-2.2,0.4c0.2-1.6,1.3-4.9,1.7-6.4  c0.3-1.2,1-2.1,2.3-2.5c-0.4,1.8-1.4,5.2-1.7,7l-0.2,1.2C82.7,47.7,82.7,47.8,82.7,48z" fill="#f8545c" style=""></path><desc>Created with Snap</desc><defs></defs></g><g><g transform="matrix(1.024,0,0,-1.024,0,0)"><path d="M462 -10L432 -10Q388 90 343 189Q298 289 255 391Q241 423 227 455Q214 488 201 521Q189 554 176 587Q176 576 175 565Q175 554 175 543Q174 507 172 456Q171 406 169 348Q167 291 166 233Q165 176 164 125Q163 103 162 81Q162 59 160 40Q179 41 197 42Q216 43 235 44L235 0L44 0L44 33Q75 34 89 46Q104 59 108 80Q112 101 113 125L132 581Q133 601 133 621Q134 641 135 660Q117 659 99 658Q81 658 63 657L63 700L216 700L388 303Q401 273 413 243Q426 213 439 183Q453 153 466 122L468 122Q479 149 494 186Q509 224 519 251Q563 361 610 471Q658 582 704 700L852 700L852 667Q827 668 811 657Q795 647 788 623Q781 599 783 558L809 103Q811 86 811 70Q811 54 811 41Q829 42 847 42Q866 43 884 44L884 0L660 0L660 33Q691 34 706 48Q721 62 724 88Q728 114 726 152L706 482Q705 498 704 514Q703 530 702 546Q701 562 700 578Q697 571 693 563Q690 555 687 546L462 -10ZM1409 0L1266 0Q1263 17 1262 30Q1261 43 1259 57Q1225 23 1185 3Q1146 -16 1102 -16Q1026 -16 989 18Q952 53 952 103Q952 149 980 182Q1009 216 1054 237Q1100 259 1153 269Q1207 280 1257 279L1257 341Q1257 376 1251 407Q1245 438 1225 458Q1205 478 1161 479Q1132 480 1101 468Q1071 456 1057 427Q1065 419 1067 408Q1070 398 1070 389Q1070 377 1060 361Q1050 346 1025 347Q1004 347 993 361Q982 376 982 396Q982 430 1007 457Q1033 484 1078 500Q1123 516 1180 516Q1264 516 1304 471Q1344 427 1343 331Q1343 294 1343 256Q1343 219 1342 181Q1342 144 1342 106Q1342 90 1341 74Q1340 58 1338 38Q1356 39 1373 40Q1391 41 1409 42L1409 0ZM1257 245Q1223 244 1185 236Q1148 229 1116 214Q1085 199 1065 174Q1046 150 1047 115Q1049 78 1071 59Q1094 41 1125 41Q1166 41 1196 56Q1227 72 1257 100Q1256 111 1256 124Q1256 137 1256 151Q1256 156 1256 183Q1257 210 1257 245ZM1722 -16Q1655 -16 1598 14Q1542 45 1508 102Q1475 160 1475 241Q1475 293 1494 342Q1513 391 1547 430Q1582 470 1630 493Q1678 516 1736 516Q1792 516 1833 499Q1875 482 1898 454Q1921 426 1921 393Q1921 371 1909 355Q1897 340 1874 340Q1849 339 1838 355Q1828 372 1828 385Q1828 395 1831 405Q1834 416 1843 425Q1835 449 1815 460Q1795 472 1773 475Q1752 479 1738 479Q1670 479 1623 424Q1577 370 1577 266Q1577 199 1598 147Q1620 95 1659 65Q1698 36 1749 36Q1796 36 1839 61Q1882 86 1906 122L1932 102Q1906 60 1869 34Q1833 8 1794 -4Q1756 -16 1722 -16ZM2331 0L2331 30Q2362 30 2374 45Q2386 61 2388 88Q2390 116 2390 152L2390 292Q2390 378 2362 421Q2335 464 2276 463Q2239 462 2203 445Q2168 428 2146 401L2146 106Q2146 86 2145 70Q2144 55 2141 38Q2157 39 2172 39Q2188 40 2204 41L2204 0L2000 0L2000 30Q2031 30 2043 45Q2055 61 2057 88Q2060 116 2060 152L2060 625Q2060 641 2060 655Q2061 670 2063 690Q2045 689 2027 688Q2010 687 1992 686L1992 728Q2036 728 2060 732Q2085 736 2097 742Q2110 748 2117 755L2146 755L2146 450Q2168 469 2195 483Q2223 498 2252 507Q2282 516 2310 516Q2397 516 2435 461Q2474 407 2475 292L2476 106Q2476 86 2475 70Q2475 55 2472 38Q2488 39 2503 39Q2519 40 2535 41L2535 0L2331 0ZM2609 0L2609 30Q2640 30 2652 45Q2664 61 2666 88Q2668 116 2668 152L2668 380Q2668 396 2669 410Q2670 425 2672 445Q2654 444 2636 443Q2619 442 2601 441L2601 483Q2645 483 2669 487Q2693 491 2705 497Q2718 503 2725 510L2754 510L2754 106Q2754 86 2753 70Q2753 55 2750 38Q2766 39 2781 39Q2797 40 2813 41L2813 0L2609 0ZM2706 609Q2685 609 2669 626Q2653 643 2653 668Q2653 693 2669 710Q2686 728 2707 728Q2730 728 2745 710Q2761 693 2761 668Q2761 643 2744 626Q2728 609 2706 609ZM3094 0L2890 0L2890 30Q2921 30 2933 45Q2945 61 2947 88Q2949 116 2949 152L2950 380Q2950 396 2950 412Q2951 428 2954 445Q2936 444 2918 443Q2901 442 2883 441L2883 483Q2927 483 2949 487Q2972 491 2983 497Q2994 503 3001 510L3030 510Q3031 503 3031 494Q3032 485 3033 474Q3034 463 3034 449Q3056 468 3082 483Q3109 498 3138 507Q3168 516 3197 516Q3284 516 3324 461Q3364 407 3364 292L3364 106Q3364 86 3363 70Q3363 55 3360 38Q3376 39 3391 39Q3407 40 3423 41L3423 0L3219 0L3219 30Q3250 30 3262 45Q3274 61 3276 88Q3278 116 3278 152L3278 292Q3277 378 3249 422Q3222 466 3163 465Q3127 464 3092 446Q3058 428 3035 400Q3036 392 3036 382Q3036 372 3036 361L3035 106Q3035 86 3034 70Q3034 55 3031 38Q3047 39 3062 39Q3078 40 3094 41L3094 0ZM3739 -16Q3670 -16 3614 16Q3559 49 3527 108Q3495 168 3495 249Q3495 319 3526 380Q3558 441 3615 478Q3672 516 3747 516Q3789 516 3825 502Q3862 489 3890 461Q3918 434 3934 392Q3950 351 3950 295L3598 289Q3598 213 3614 155Q3631 98 3668 66Q3705 35 3763 35Q3794 35 3826 46Q3859 57 3887 76Q3915 95 3932 118L3956 98Q3929 56 3891 31Q3853 6 3813 -5Q3773 -16 3739 -16ZM3601 331L3856 331Q3856 367 3845 400Q3835 434 3811 455Q3787 477 3748 477Q3690 477 3651 442Q3613 408 3601 331ZM4809 0L4313 0L4313 33Q4351 35 4365 50Q4379 66 4380 93Q4382 121 4382 156L4382 588Q4382 608 4383 626Q4384 645 4385 660Q4367 659 4349 658Q4331 657 4313 656L4313 700L4538 700L4538 667Q4501 666 4486 650Q4472 634 4470 607Q4469 580 4469 544L4469 115Q4469 88 4468 69Q4468 50 4466 37L4653 40Q4716 41 4748 80Q4781 119 4781 207L4815 207L4809 0ZM5122 -16Q5053 -16 4997 16Q4942 49 4910 108Q4878 168 4878 249Q4878 319 4909 380Q4941 441 4998 478Q5055 516 5130 516Q5172 516 5208 502Q5245 489 5273 461Q5301 434 5317 392Q5333 351 5333 295L4981 289Q4981 213 4997 155Q5014 98 5051 66Q5088 35 5146 35Q5177 35 5209 46Q5242 57 5270 76Q5298 95 5315 118L5339 98Q5312 56 5274 31Q5236 6 5196 -5Q5156 -16 5122 -16ZM4984 331L5239 331Q5239 367 5228 400Q5218 434 5194 455Q5170 477 5131 477Q5073 477 5034 442Q4996 408 4984 331ZM5869 0L5726 0Q5723 17 5722 30Q5721 43 5719 57Q5685 23 5645 3Q5606 -16 5562 -16Q5486 -16 5449 18Q5412 53 5412 103Q5412 149 5440 182Q5469 216 5514 237Q5560 259 5613 269Q5667 280 5717 279L5717 341Q5717 376 5711 407Q5705 438 5685 458Q5665 478 5621 479Q5592 480 5561 468Q5531 456 5517 427Q5525 419 5527 408Q5530 398 5530 389Q5530 377 5520 361Q5510 346 5485 347Q5464 347 5453 361Q5442 376 5442 396Q5442 430 5467 457Q5493 484 5538 500Q5583 516 5640 516Q5724 516 5764 471Q5804 427 5803 331Q5803 294 5803 256Q5803 219 5802 181Q5802 144 5802 106Q5802 90 5801 74Q5800 58 5798 38Q5816 39 5833 40Q5851 41 5869 42L5869 0ZM5717 245Q5683 244 5645 236Q5608 229 5576 214Q5545 199 5525 174Q5506 150 5507 115Q5509 78 5531 59Q5554 41 5585 41Q5626 41 5656 56Q5687 72 5717 100Q5716 111 5716 124Q5716 137 5716 151Q5716 156 5716 183Q5717 210 5717 245ZM5938 0L5938 30Q5969 30 5981 45Q5993 61 5995 88Q5997 116 5997 152L5997 380Q5997 396 5997 412Q5998 428 6001 445Q5983 444 5965 443Q5948 443 5930 442L5930 483L5961 483Q6004 483 6020 491Q6037 500 6048 510L6077 510Q6079 494 6080 470Q6081 447 6082 411Q6097 436 6123 460Q6149 484 6181 500Q6214 516 6250 516Q6278 516 6299 501Q6320 486 6320 453Q6320 445 6315 433Q6310 422 6299 413Q6288 405 6270 405Q6248 406 6235 422Q6222 439 6225 461Q6200 462 6173 448Q6147 434 6124 409Q6101 385 6083 352L6084 106Q6084 86 6083 70Q6083 55 6080 38Q6096 39 6111 39Q6127 40 6143 41L6143 0L5938 0ZM6575 0L6371 0L6371 30Q6402 30 6414 45Q6426 61 6428 88Q6430 116 6430 152L6431 380Q6431 396 6431 412Q6432 428 6435 445Q6417 444 6399 443Q6382 442 6364 441L6364 483Q6408 483 6430 487Q6453 491 6464 497Q6475 503 6482 510L6511 510Q6512 503 6512 494Q6513 485 6514 474Q6515 463 6515 449Q6537 468 6563 483Q6590 498 6619 507Q6649 516 6678 516Q6765 516 6805 461Q6845 407 6845 292L6845 106Q6845 86 6844 70Q6844 55 6841 38Q6857 39 6872 39Q6888 40 6904 41L6904 0L6700 0L6700 30Q6731 30 6743 45Q6755 61 6757 88Q6759 116 6759 152L6759 292Q6758 378 6730 422Q6703 466 6644 465Q6608 464 6573 446Q6539 428 6516 400Q6517 392 6517 382Q6517 372 6517 361L6516 106Q6516 86 6515 70Q6515 55 6512 38Q6528 39 6543 39Q6559 40 6575 41L6575 0ZM6978 0L6978 30Q7009 30 7021 45Q7033 61 7035 88Q7037 116 7037 152L7037 380Q7037 396 7038 410Q7039 425 7041 445Q7023 444 7005 443Q6988 442 6970 441L6970 483Q7014 483 7038 487Q7062 491 7074 497Q7087 503 7094 510L7123 510L7123 106Q7123 86 7122 70Q7122 55 7119 38Q7135 39 7150 39Q7166 40 7182 41L7182 0L6978 0ZM7075 609Q7054 609 7038 626Q7022 643 7022 668Q7022 693 7038 710Q7055 728 7076 728Q7099 728 7114 710Q7130 693 7130 668Q7130 643 7113 626Q7097 609 7075 609ZM7463 0L7259 0L7259 30Q7290 30 7302 45Q7314 61 7316 88Q7318 116 7318 152L7319 380Q7319 396 7319 412Q7320 428 7323 445Q7305 444 7287 443Q7270 442 7252 441L7252 483Q7296 483 7318 487Q7341 491 7352 497Q7363 503 7370 510L7399 510Q7400 503 7400 494Q7401 485 7402 474Q7403 463 7403 449Q7425 468 7451 483Q7478 498 7507 507Q7537 516 7566 516Q7653 516 7693 461Q7733 407 7733 292L7733 106Q7733 86 7732 70Q7732 55 7729 38Q7745 39 7760 39Q7776 40 7792 41L7792 0L7588 0L7588 30Q7619 30 7631 45Q7643 61 7645 88Q7647 116 7647 152L7647 292Q7646 378 7618 422Q7591 466 7532 465Q7496 464 7461 446Q7427 428 7404 400Q7405 392 7405 382Q7405 372 7405 361L7404 106Q7404 86 7403 70Q7403 55 7400 38Q7416 39 7431 39Q7447 40 7463 41L7463 0ZM8107 -271Q8017 -271 7962 -251Q7907 -231 7882 -200Q7857 -169 7857 -136Q7857 -105 7871 -82Q7886 -58 7907 -41Q7929 -24 7949 -16Q7917 -5 7898 13Q7880 32 7880 63Q7880 98 7908 128Q7936 159 7980 166Q7934 188 7906 227Q7879 266 7879 318Q7879 378 7910 422Q7941 467 7989 491Q8038 516 8090 516Q8123 516 8156 506Q8189 497 8217 479Q8227 507 8245 529Q8264 551 8288 563Q8312 576 8338 576Q8364 576 8377 562Q8391 549 8391 526Q8391 519 8387 509Q8383 499 8373 492Q8364 485 8348 485Q8331 485 8320 495Q8309 505 8306 520Q8281 516 8267 496Q8253 477 8248 454Q8272 432 8286 401Q8301 370 8301 335Q8301 279 8271 235Q8242 191 8194 166Q8146 142 8090 142Q8071 142 8057 144Q8043 147 8023 147Q7986 147 7963 129Q7940 111 7947 86Q7955 62 7996 55Q8037 49 8106 46Q8183 43 8238 28Q8293 13 8322 -19Q8352 -50 8352 -104Q8352 -144 8330 -176Q8309 -207 8273 -228Q8238 -249 8194 -260Q8151 -271 8107 -271ZM8106 -232Q8192 -232 8240 -200Q8288 -168 8288 -125Q8288 -88 8263 -69Q8238 -49 8195 -42Q8152 -34 8096 -33Q8069 -32 8043 -31Q8017 -29 7993 -25Q7966 -43 7951 -69Q7936 -95 7936 -124Q7936 -173 7982 -203Q8029 -232 8106 -232ZM8093 178Q8130 178 8154 196Q8179 214 8191 245Q8204 276 8204 315Q8204 359 8191 397Q8178 435 8152 458Q8127 481 8088 481Q8034 481 8004 440Q7975 400 7975 340Q7975 292 7989 255Q8003 219 8029 198Q8056 178 8093 178Z" fill="#741239" style=""></path></g></g></g></svg>